PathFileType	4	(X/Y/Z)	5_coords_data.trc
DataRate	CameraRate	NumFrames	NumMarkers	Units	OrigDataRate	OrigDataStartFrame	OrigNumFrames
30.0	30.0	7	21	m	30.0	20	57
Frame#	Time	THUMB_TIP	THUMB_IP	THUMB_MCP	THUMB_CMC	INDEX_TIP	INDEX_DIP	INDEX_PIP	INDEX_MCP	MIDDLE_TIP	MIDDLE_DIP	MIDDLE_PIP	MIDDLE_MCP	RING_TIP	RING_DIP	RING_PIP	RING_MCP	PINKY_TIP	PINKY_DIP	PINKY_PIP	PINKY_MCP	WRIST
X1	Y1	Z1	X2	Y2	Z2	X3	Y3	Z3	X4	Y4	Z4	X5	Y5	Z5	X6	Y6	Z6	X7	Y7	Z7	X8	Y8	Z8	X9	Y9	Z9	X10	Y10	Z10	X11	Y11	Z11	X12	Y12	Z12	X13	Y13	Z13	X14	Y14	Z14	X15	Y15	Z15	X16	Y16	Z16	X17	Y17	Z17	X18	Y18	Z18	X19	Y19	Z19	X20	Y20	Z20	X21	Y21	Z21
19	0.6333333333333333	-0.007241710186004639	-0.1489949951171875	1.062260009765625	-0.012020199775695802	-0.12430799865722657	1.05531005859375	-0.0318528003692627	-0.10184400177001954	1.0573399658203124	-0.03860879898071289	-0.06707510375976562	1.05747998046875	-0.007617969989776611	-0.12912199401855468	0.9365880126953126	-0.017225099563598634	-0.11925399780273438	0.9542210083007813	-0.027028299331665038	-0.10853299713134766	0.9723759765625	-0.0373760986328125	-0.08842569732666015	1.0026400146484375	-0.016186800003051758	-0.08208589935302735	0.9058610229492188	-0.023190099716186522	-0.08030609893798828	0.9299429931640625	-0.03227410125732422	-0.07682119750976563	0.9579299926757813	-0.039941600799560543	-0.06898320007324218	0.99556298828125	-0.024194700241088867	-0.051162700653076175	0.90847802734375	-0.026056699752807617	-0.050466800689697264	0.9329439697265625	-0.030742700576782227	-0.049914398193359376	0.9595180053710938	-0.03550970077514649	-0.04978010177612305	0.995219970703125	-0.01764900016784668	-0.01034850025177002	0.9393189697265625	-0.020750699996948244	-0.01737660026550293	0.9584550170898437	-0.024809900283813476	-0.023920499801635742	0.9752639770507813	-0.030201400756835937	-0.03292340087890625	0.9993699951171875	-0.058832599639892576	-0.03718740081787109	1.0678499755859374
20	0.6666666666666666	-0.007131889820098877	-0.14920700073242188	1.0624100341796876	-0.012031700134277344	-0.12452300262451171	1.055510009765625	-0.031797300338745116	-0.10204499816894531	1.0575400390625	-0.03858769989013672	-0.06725	1.0576600341796876	-0.007583380222320557	-0.1293159942626953	0.936833984375	-0.017177900314331054	-0.11945899963378906	0.9544400024414063	-0.02700320053100586	-0.10877400207519532	0.9726090087890625	-0.03738420104980469	-0.08866380310058594	1.0028800048828126	-0.016219200134277342	-0.08222560119628906	0.906093017578125	-0.02325429916381836	-0.08051750183105469	0.9302000122070313	-0.03234519958496094	-0.07705359649658203	0.958198974609375	-0.04003060150146484	-0.06927989959716797	0.9958300170898438	-0.02428249931335449	-0.051394500732421876	0.908697998046875	-0.026134199142456054	-0.05067259979248047	0.9332080078125	-0.03081999969482422	-0.05012459945678711	0.9597830200195312	-0.03561320114135742	-0.05000139999389648	0.9954650268554688	-0.01772610092163086	-0.010561100006103516	0.9395440063476562	-0.02079319953918457	-0.017601200103759766	0.9587119750976563	-0.024870800018310546	-0.02412179946899414	0.9755289916992187	-0.030274099349975585	-0.03311859893798828	0.9996010131835937	-0.0588744010925293	-0.03717300033569336	1.068219970703125
21	0.7	-0.00719497013092041	-0.14953700256347657	1.0626400146484376	-0.012007300376892089	-0.12481600189208984	1.05572998046875	-0.03176650047302246	-0.1023550033569336	1.0579000244140624	-0.03856320190429687	-0.06754190063476563	1.0580400390625	-0.007620610237121582	-0.12972500610351562	0.9371510009765625	-0.017213699340820312	-0.11983200073242188	0.9548079833984375	-0.027036500930786134	-0.10911000061035156	0.9730059814453125	-0.03730199813842774	-0.08898210144042969	1.00322998046875	-0.016264299392700195	-0.08261710357666016	0.9063870239257813	-0.023279300689697267	-0.0808802032470703	0.9305120239257813	-0.03232640075683594	-0.07739209747314453	0.9585070190429688	-0.03999610137939453	-0.06957019805908203	0.99622900390625	-0.024475500106811522	-0.05188150024414063	0.908969970703125	-0.02628019905090332	-0.051138900756835935	0.933406982421875	-0.030882999420166014	-0.05053860092163086	0.960052978515625	-0.035597900390625	-0.05034659957885742	0.9957890014648437	-0.017814699172973632	-0.011024600028991699	0.9397150268554687	-0.020877099990844725	-0.018007900238037108	0.95885498046875	-0.024865699768066407	-0.02448590087890625	0.9756649780273438	-0.030325000762939452	-0.03345930099487305	0.9998510131835937	-0.05876440048217774	-0.03754439926147461	1.06843994140625
22	0.7333333333333333	-0.0071865301132202145	-0.14985400390625	1.0631199951171875	-0.011987099647521973	-0.1251230010986328	1.0560999755859375	-0.03164760017395019	-0.10268699645996093	1.0582099609375	-0.03847430038452149	-0.06787069702148438	1.0583599853515624	-0.007623690128326416	-0.13025999450683592	0.9375419921875	-0.017211700439453127	-0.12030899810791015	0.95514501953125	-0.02705500030517578	-0.10957499694824219	0.9733179931640625	-0.03732310104370117	-0.08937480163574218	1.0036300048828124	-0.01624449920654297	-0.08313950347900391	0.90677001953125	-0.023261600494384766	-0.08136019897460937	0.9308109741210937	-0.032319599151611325	-0.07782669830322266	0.9587990112304687	-0.04003720092773438	-0.07001860046386718	0.9965880126953125	-0.024301000595092773	-0.05232600021362305	0.9092830200195312	-0.026147199630737306	-0.051566898345947264	0.9337540283203125	-0.03077090072631836	-0.05096239852905273	0.9603790283203125	-0.035477500915527344	-0.05076100158691406	0.9960869750976562	-0.017472200393676758	-0.011500699996948242	0.94006201171875	-0.02060810089111328	-0.018452899932861328	0.9592139892578125	-0.024638299942016603	-0.02492460060119629	0.9760289916992188	-0.03015810012817383	-0.033871601104736325	1.0001300048828126	-0.05870009994506836	-0.037874500274658204	1.0687900390625
23	0.7666666666666667	-0.007027299880981446	-0.15011199951171875	1.063449951171875	-0.011833600044250488	-0.12545800018310546	1.0563299560546875	-0.03154299926757813	-0.10292500305175781	1.0584599609375	-0.03838800048828125	-0.06809850311279297	1.0585699462890625	-0.00765871000289917	-0.13077000427246094	0.9379030151367187	-0.017240800857543946	-0.12079199981689454	0.9555180053710938	-0.027049800872802735	-0.11002400207519532	0.9735709838867187	-0.03726869964599609	-0.08971360015869141	1.0038300170898438	-0.016256000518798826	-0.08367569732666015	0.9070599975585938	-0.023309600830078124	-0.08186810302734375	0.9310360107421874	-0.03238290023803711	-0.07826869964599609	0.9590029907226563	-0.04004650115966797	-0.07037789916992188	0.996760986328125	-0.024194400787353517	-0.05278419876098633	0.9095089721679688	-0.02607539939880371	-0.05199259948730469	0.9339760131835938	-0.030781999588012695	-0.05136930084228516	0.9606010131835937	-0.03552679824829102	-0.05111349868774414	0.9963569946289063	-0.017248199462890624	-0.011981200218200684	0.9402230224609375	-0.020486600875854494	-0.018899700164794923	0.959447998046875	-0.024569499969482423	-0.025324499130249024	0.976291015625	-0.030153799057006835	-0.03422589874267578	1.0004500122070312	-0.05856399917602539	-0.038202999114990234	1.06897998046875
24	0.8	-0.006978529930114746	-0.150343994140625	1.0635699462890624	-0.011812199592590332	-0.12564700317382813	1.056550048828125	-0.03152840042114258	-0.10310299682617187	1.0586700439453125	-0.03834889984130859	-0.06828900146484375	1.05868994140625	-0.007592609882354736	-0.1311269989013672	0.9382000122070312	-0.017203899383544923	-0.12108899688720703	0.9558270263671875	-0.02705470085144043	-0.11028399658203125	0.973905029296875	-0.03729439926147461	-0.08997450256347657	1.004030029296875	-0.016107599258422853	-0.08411100006103515	0.907323974609375	-0.023282699584960938	-0.08224030303955078	0.9313070068359375	-0.03235540008544922	-0.07858209991455078	0.95922802734375	-0.0400630989074707	-0.07065059661865235	0.9969240112304687	-0.02431450080871582	-0.05321390151977539	0.9096389770507812	-0.02617919921875	-0.05236759948730469	0.9341370239257812	-0.030854799270629882	-0.051681198120117185	0.9607960205078125	-0.03553329849243164	-0.05139590072631836	0.9964359741210937	-0.017589899063110353	-0.012373900413513184	0.940219970703125	-0.020743900299072266	-0.019260799407958985	0.9592839965820312	-0.024726699829101563	-0.025629199981689454	0.9762830200195313	-0.030237800598144533	-0.034459098815917966	1.00052001953125	-0.05860520172119141	-0.03837649917602539	1.0691500244140626
25	0.8333333333333334	-0.006912950038909912	-0.150552001953125	1.0636300048828125	-0.011717499732971192	-0.12584500122070313	1.0566400146484376	-0.0314818000793457	-0.1032750015258789	1.0589000244140625	-0.038327098846435544	-0.068493896484375	1.0589200439453126	-0.00740625	-0.13136099243164062	0.9384760131835937	-0.017077699661254882	-0.12129900360107422	0.9561589965820313	-0.026957799911499023	-0.11052899932861328	0.9741959838867188	-0.03724520111083984	-0.0901531982421875	1.0043200073242187	-0.016010000228881837	-0.08445020294189454	0.9075989990234375	-0.023165700912475586	-0.08253299713134765	0.9315460205078125	-0.03225149917602539	-0.07884410095214844	0.9594920043945312	-0.03994369888305664	-0.07085929870605469	0.9971580200195312	-0.024384099960327147	-0.05352939987182617	0.9098800048828125	-0.026218599319458007	-0.05267380142211914	0.9343610229492187	-0.03086050033569336	-0.051958301544189456	0.9609580078125	-0.035471298217773437	-0.05162250137329102	0.99664501953125	-0.01763839912414551	-0.012628399848937988	0.9403839721679688	-0.020766700744628906	-0.019453100204467774	0.95952099609375	-0.024727500915527344	-0.025811899185180665	0.9765469970703125	-0.030160400390625	-0.03466059875488281	1.0006599731445311	-0.058589500427246095	-0.038446399688720705	1.0694000244140625
